<svg width="60" height="54" viewBox="0 0 60 54" fill="none" xmlns="http://www.w3.org/2000/svg">
<path d="M29.7137 11.9473C29.12 11.9473 28.6535 11.477 28.6535 10.8784V8.18482C28.6535 5.27743 26.321 2.92587 23.4796 2.92587C22.0801 2.92587 20.8078 3.48169 19.79 4.46507C18.7722 5.44845 18.2633 6.77388 18.2633 8.18482V10.8784C18.2633 11.477 17.7968 11.9473 17.203 11.9473C16.6093 11.9473 16.1428 11.477 16.1428 10.8784V8.18482C16.1428 6.21806 16.9062 4.37956 18.2633 2.96863C19.6628 1.55769 21.4863 0.788086 23.4372 0.788086C27.466 0.788086 30.7315 4.08027 30.7315 8.14206V10.8357C30.7739 11.477 30.3074 11.9473 29.7137 11.9473Z" fill="#FFD497"/>
<path d="M46.3802 47.9914H15.464L10.3325 8.05762H44.2173L46.3802 47.9914Z" fill="white"/>
<path d="M15.464 47.9914L8.12722 46.7087L0.748047 47.9914L2.95332 8.05762H13.2587L15.464 47.9914Z" fill="#F3F3F3"/>
<path d="M28.9076 21.8223C24.8788 21.8223 21.6133 18.5301 21.6133 14.4683V11.7747C21.6133 11.1762 22.0798 10.7058 22.6735 10.7058C23.2672 10.7058 23.7337 11.1762 23.7337 11.7747V14.4683C23.7337 17.3757 26.0662 19.6845 28.9076 19.6845C31.749 19.6845 34.1239 17.333 34.1239 14.4256V11.732C34.1239 11.1334 34.5904 10.6631 35.1842 10.6631C35.7779 10.6631 36.2444 11.1334 36.2444 11.732V14.4256C36.2444 18.5301 32.9789 21.8223 28.9076 21.8223Z" fill="#FFD497"/>
<path d="M48.119 53.9747C54.3961 53.9747 59.4846 48.8445 59.4846 42.5161C59.4846 36.1878 54.3961 31.0576 48.119 31.0576C41.842 31.0576 36.7534 36.1878 36.7534 42.5161C36.7534 48.8445 41.842 53.9747 48.119 53.9747Z" fill="#FF1616"/>
<path d="M46.9315 46.964C46.5922 46.964 46.2953 46.8357 46.0409 46.5792L42.4361 42.945C41.9272 42.4319 41.9272 41.6196 42.4361 41.1492C42.945 40.6362 43.7508 40.6362 44.2173 41.1492L46.9315 43.8856L52.0206 38.7549C52.5295 38.2419 53.3353 38.2419 53.8018 38.7549C54.3107 39.268 54.3107 40.0803 53.8018 40.5507L47.8221 46.5792C47.5676 46.8357 47.2284 46.964 46.9315 46.964Z" fill="white"/>
</svg>
