<svg width="60" height="44" viewBox="0 0 60 44" fill="none" xmlns="http://www.w3.org/2000/svg">
<path d="M6.65186 43.2727C9.81873 43.2727 12.4063 40.6608 12.4063 37.4641V0.0390625H46.0061V37.4641C46.0061 40.6608 43.4185 43.2727 40.2516 43.2727" fill="white"/>
<path d="M34.4972 37.4638V33.0586H0.897461V37.4638C0.897461 40.6605 3.48503 43.2725 6.65191 43.2725H40.2517C37.0848 43.2725 34.4972 40.6605 34.4972 37.4638Z" fill="#F3F3F3"/>
<path d="M22.718 7.48438H18.4312V9.35562H22.718V7.48438Z" fill="#FF1616"/>
<path d="M39.2086 7.48438H26.0391V9.35562H39.2086V7.48438Z" fill="#F7C604"/>
<path d="M22.718 14.1133H18.4312V15.9845H22.718V14.1133Z" fill="#FF1616"/>
<path d="M39.2086 14.1133H26.0391V15.9845H39.2086V14.1133Z" fill="#F7C604"/>
<path d="M22.718 20.7383H18.4312V22.6095H22.718V20.7383Z" fill="#FF1616"/>
<path d="M39.2086 20.7383H26.0391V22.6095H39.2086V20.7383Z" fill="#F7C604"/>
<path d="M22.718 27.3672H18.4312V29.2384H22.718V27.3672Z" fill="#FF1616"/>
<path d="M39.2089 27.3672H26.0393V29.2384H39.2089V27.3672Z" fill="#F7C604"/>
<path d="M48.4402 25.5334C54.5831 25.5334 59.563 20.5066 59.563 14.3057C59.563 8.1049 54.5831 3.07812 48.4402 3.07812C42.2972 3.07812 37.3174 8.1049 37.3174 14.3057C37.3174 20.5066 42.2972 25.5334 48.4402 25.5334Z" fill="#FF1616"/>
<path d="M50.409 15.0876V8.10938H46.4697V15.0876H43.8435L48.4393 20.5064L53.0352 15.0876H50.409Z" fill="white"/>
</svg>
