<svg width="44" height="31" viewBox="0 0 44 31" fill="none" xmlns="http://www.w3.org/2000/svg">
<path d="M14.52 4.5625C14.52 3.40218 14.0564 2.28938 13.2313 1.46891C12.4061 0.648436 11.287 0.1875 10.12 0.1875C8.95305 0.1875 7.83389 0.648436 7.00873 1.46891C6.18357 2.28938 5.72 3.40218 5.72 4.5625C5.72 5.72282 6.18357 6.83562 7.00873 7.65609C7.83389 8.47656 8.95305 8.9375 10.12 8.9375C11.287 8.9375 12.4061 8.47656 13.2313 7.65609C14.0564 6.83562 14.52 5.72282 14.52 4.5625ZM2.2 15.5C2.2 16.71 3.18313 17.6875 4.4 17.6875H10.285C10.9794 14.9941 12.9388 12.7998 15.4963 11.7676C14.8294 11.3574 14.0388 11.125 13.2 11.125H6.6C4.17313 11.125 2.2 13.0869 2.2 15.5ZM33.935 17.6875H39.6C40.8169 17.6875 41.8 16.71 41.8 15.5C41.8 13.0869 39.8269 11.125 37.4 11.125H30.8C29.9956 11.125 29.2394 11.3369 28.5931 11.7129C31.2125 12.7246 33.2269 14.9463 33.935 17.6875ZM26.895 13.4766C26.4206 13.3672 25.9188 13.3125 25.41 13.3125H18.81C18.2256 13.3125 17.6619 13.3877 17.1256 13.5244C15.0081 14.0781 13.3031 15.6504 12.5813 17.6875C12.3406 18.3711 12.2031 19.1094 12.2031 19.875C12.2031 21.085 13.1863 22.0625 14.4031 22.0625H29.8031C31.02 22.0625 32.0031 21.085 32.0031 19.875C32.0031 19.1094 31.8725 18.3711 31.625 17.6875C30.8825 15.5889 29.095 13.9824 26.8881 13.4766H26.895ZM38.72 4.5625C38.72 3.40218 38.2564 2.28938 37.4313 1.46891C36.6061 0.648436 35.487 0.1875 34.32 0.1875C33.153 0.1875 32.0339 0.648436 31.2087 1.46891C30.3836 2.28938 29.92 3.40218 29.92 4.5625C29.92 5.72282 30.3836 6.83562 31.2087 7.65609C32.0339 8.47656 33.153 8.9375 34.32 8.9375C35.487 8.9375 36.6061 8.47656 37.4313 7.65609C38.2564 6.83562 38.72 5.72282 38.72 4.5625ZM22.11 11.125C23.5687 11.125 24.9676 10.5488 25.9991 9.52324C27.0305 8.49765 27.61 7.10665 27.61 5.65625C27.61 4.20585 27.0305 2.81485 25.9991 1.78926C24.9676 0.76367 23.5687 0.1875 22.11 0.1875C20.6513 0.1875 19.2524 0.76367 18.2209 1.78926C17.1895 2.81485 16.61 4.20585 16.61 5.65625C16.61 7.10665 17.1895 8.49765 18.2209 9.52324C19.2524 10.5488 20.6513 11.125 22.11 11.125ZM2.2 26.4375C0.983125 26.4375 0 27.415 0 28.625C0 29.835 0.983125 30.8125 2.2 30.8125H41.8C43.0169 30.8125 44 29.835 44 28.625C44 27.415 43.0169 26.4375 41.8 26.4375H2.2Z" fill="white"/>
</svg>
