<svg width="48" height="48" viewBox="0 0 48 48" fill="none" xmlns="http://www.w3.org/2000/svg">
<path d="M28.4998 42.7998C27.7331 43.5664 26.7831 43.9498 25.6498 43.9498C24.5164 43.9498 23.5664 43.5664 22.7998 42.7998L5.19977 25.1998C4.8331 24.8331 4.5411 24.3998 4.32377 23.8998C4.10643 23.3998 3.99843 22.8664 3.99977 22.2998V7.99976C3.99977 6.89976 4.39177 5.95842 5.17577 5.17576C5.95977 4.39309 6.9011 4.00109 7.99977 3.99976H22.2998C22.8664 3.99976 23.3998 4.10842 23.8998 4.32576C24.3998 4.54309 24.8331 4.83442 25.1998 5.19976L42.7998 22.8498C43.5664 23.6164 43.9498 24.5584 43.9498 25.6758C43.9498 26.7931 43.5664 27.7344 42.7998 28.4998L28.4998 42.7998ZM12.9998 15.9998C13.8331 15.9998 14.5418 15.7084 15.1258 15.1258C15.7098 14.5431 16.0011 13.8344 15.9998 12.9998C15.9998 12.1664 15.7084 11.4584 15.1258 10.8758C14.5431 10.2931 13.8344 10.0011 12.9998 9.99976C12.1664 9.99976 11.4584 10.2918 10.8758 10.8758C10.2931 11.4598 10.0011 12.1678 9.99977 12.9998C9.99977 13.8331 10.2918 14.5418 10.8758 15.1258C11.4598 15.7098 12.1678 16.0011 12.9998 15.9998Z" fill="white"/>
<path d="M24.4311 33C29.0874 33 32.8622 29.1944 32.8622 24.5C32.8622 19.8056 29.0874 16 24.4311 16C19.7747 16 16 19.8056 16 24.5C16 29.1944 19.7747 33 24.4311 33Z" fill="#FF1616"/>
<path d="M23.5502 27.7996C23.2985 27.7996 23.0783 27.7044 22.8895 27.5141L20.2155 24.8182C19.838 24.4376 19.838 23.835 20.2155 23.4861C20.593 23.1055 21.1907 23.1055 21.5368 23.4861L23.5502 25.516L27.3253 21.71C27.7028 21.3294 28.3005 21.3294 28.6466 21.71C29.0241 22.0906 29.0241 22.6932 28.6466 23.0421L24.2108 27.5141C24.0221 27.7044 23.7704 27.7996 23.5502 27.7996Z" fill="white"/>
</svg>
